<svg width="819" height="462" viewBox="0 0 819 462" fill="none" xmlns="http://www.w3.org/2000/svg">
<circle cx="231" cy="231" r="223.5" stroke="#57E309" stroke-width="15"/>
<path d="M704.5 229C704.5 287.919 691.498 340.888 670.85 378.859C650.045 417.119 622.542 438.5 594 438.5C565.458 438.5 537.955 417.119 517.15 378.859C496.502 340.888 483.5 287.919 483.5 229C483.5 170.081 496.502 117.112 517.15 79.1407C537.955 40.8809 565.458 19.5 594 19.5C622.542 19.5 650.045 40.8809 670.85 79.1407C691.498 117.112 704.5 170.081 704.5 229Z" stroke="#57E309" stroke-width="15"/>
<path d="M811.5 229C811.5 282.398 805.832 330.481 796.807 364.988C792.279 382.298 787.015 395.768 781.473 404.732C775.675 414.107 770.918 416.5 768 416.5C765.082 416.5 760.325 414.107 754.527 404.732C748.985 395.768 743.721 382.298 739.193 364.988C730.168 330.481 724.5 282.398 724.5 229C724.5 175.602 730.168 127.519 739.193 93.0119C743.721 75.7023 748.985 62.2324 754.527 53.2685C760.325 43.8934 765.082 41.5 768 41.5C770.918 41.5 775.675 43.8934 781.473 53.2685C787.015 62.2324 792.279 75.7023 796.807 93.0119C805.832 127.519 811.5 175.602 811.5 229Z" stroke="#57E309" stroke-width="15"/>
</svg>
